<?xml version="1.0"?>
<svg xmlns:rdf="http://www.w3.org/1999/02/22-rdf-syntax-ns#" xmlns="http://www.w3.org/2000/svg" xmlns:cc="http://web.resource.org/cc/" xmlns:dc="http://purl.org/dc/elements/1.1/" xmlns:svg="http://www.w3.org/2000/svg" id="svg2" viewBox="0 0 282.27 280.22" version="1.0">
  <g id="layer1" transform="translate(-185.09 -75.182)">
    <path id="path2169" d="m327.78 354.96c-16.15-2.1-42.05-12.39-74.04-29.44-13.1-6.98-14.77-8.1-15-10.03-0.26-2.15-0.12-2.1 11.2 3.92 19.92 10.61 38.79 19.62 41.04 19.62 0.82 0 2.05 0.49 2.74 1.08 1.55 1.32 7.75 3.78 10.47 4.16 1.1 0.15 3.97 0.96 6.39 1.8s6.38 1.98 8.8 2.55c2.42 0.56 4.77 1.31 5.22 1.67 0.46 0.35 3.53 0.89 6.82 1.19 7.13 0.64 13.2-0.44 21.18-3.77l5.63-2.35-0.59-6.56c-0.51-5.63-0.37-7.05 0.97-9.95 0.86-1.87 1.57-3.88 1.57-4.47 0-1.09 5.73-5.04 9.83-6.79 6.84-2.91 26.8-2.77 40.56 0.28 12.96 2.88 25.19 3.03 33.06 0.41 2.93-0.97 5.62-2.3 5.99-2.96 0.36-0.65 1.26-1.27 1.98-1.38 2-0.29 5.06-3.44 9.98-10.3 4.55-6.32 7.29-8.49 4.27-3.37-3.85 6.52-10.65 14.8-14.11 17.18-7.11 4.89-11.46 5.97-23.98 5.92-8.82-0.03-12.8-0.43-18.79-1.88-10.48-2.53-28.63-3.2-36-1.34-2.86 0.73-6.64 2.32-8.39 3.54-4.16 2.87-5.36 6.18-4.7 12.95 1.18 12.14 1.49 10.97-3.63 13.55-8.9 4.5-18.35 6.08-28.47 4.77zm-85.98-41.87c0-0.2 1.37-1.94 3.05-3.88 5.2-6.01 9.65-23.16 10.93-42.16 0.71-10.36 1.78-15.45 3.69-17.5l1.61-1.73-2.56-2.18c-1.41-1.21-3.05-2.48-3.64-2.83-0.64-0.37-1.09-2.03-1.1-4-0.04-11.41-8.25-28.84-19.27-40.89-5.22-5.72-15.23-13.55-23.11-18.1-5.29-3.05-6.76-3.52-12.43-3.94-7.46-0.57-9.9-1.93-12.35-6.87-2.04-4.12-2.05-7.09-0.01-9.95 2.45-3.45 2.7-6.35 0.85-9.93-1.21-2.34-1.4-3.41-0.74-4.2 1.4-1.69 2.28-1.26 3.53 1.71 1.63 3.9 1.45 5.91-0.92 10.68l-2.08 4.17 1.88 3.79c2.69 5.42 6.02 7.38 12.59 7.4 5.18 0.01 10.94 1.41 11.96 2.91 0.29 0.42 3.31 2.72 6.72 5.12 3.41 2.39 7.19 5.08 8.4 5.98 3.34 2.48 14.6 13.84 14.6 14.74 0 0.44 1.29 2.81 2.86 5.28 1.58 2.47 3.69 6.24 4.68 8.38 0.99 2.15 2.25 4.44 2.8 5.11 0.55 0.66 0.84 1.66 0.64 2.23-0.19 0.56-0.07 1.79 0.27 2.73 0.35 0.94 1.02 4.52 1.5 7.95 0.87 6.22 0.89 6.27 5.36 10.25 6.17 5.51 11.48 12.94 11.48 16.1 0 2.29-1.88 6.1-2.57 5.19-3.78-5.07-9.67-12-10.19-12-0.39 0-0.93 2.79-1.2 6.2-0.45 5.53-1.42 14.61-2.4 22.59-0.71 5.72-4.35 18.28-6.52 22.47-1.23 2.38-2.17 4.57-2.1 4.85 0.07 0.29-1.09 1.46-2.59 2.6-2.61 2-3.62 2.48-3.62 1.73zm218.7-19.15c-5-2.33-12.39-8.76-13.76-11.99-0.56-1.32-1.45-2.91-1.97-3.53-0.51-0.63-1.03-1.55-1.14-2.06-0.11-0.5-1.11-3.97-2.22-7.71-3.12-10.55-2.7-26.38 0.81-30.79 1.65-2.07 1.93-2.17 2.41-0.91 0.33 0.86-0.1 2.62-1.08 4.37-6.34 11.43-2.05 31.74 9.05 42.83 3.58 3.59 10.69 7.69 13.31 7.69 1.01 0 1.45 0.61 1.45 2 0 2.55-1.54 2.58-6.86 0.1zm-211.45-54.6c-1.99-2.53-2.28-7.49-0.44-7.49 1.34 0 2.26 1.97 3.11 6.6 0.65 3.56-0.32 3.88-2.67 0.89zm0.71-3.56c-0.49-0.91-1.1-1.46-1.34-1.22-0.25 0.25 0 1 0.56 1.67 1.44 1.74 1.83 1.51 0.78-0.45zm194.93-2.54c-4.78-9.76-13.38-12.19-16.5-4.65-0.56 1.36-1.36 2.46-1.78 2.46-1.77 0 2.43-8.27 4.64-9.12 5.33-2.04 13.13 3.12 15.49 10.25 1.73 5.25 0.53 5.94-1.85 1.06zm-22.56-6.79c0.07-2.09 0.34-4.34 0.59-5 0.86-2.23 2.59-8.39 2.63-9.34 0.02-0.52 0.86-1.96 1.87-3.2 1.02-1.24 2.44-3.24 3.17-4.45 0.72-1.21 1.6-2.2 1.95-2.2 0.98 0 0.79 0.49-1.75 4.49-3.26 5.13-5.07 10.99-5.16 16.7-0.09 5.07-0.7 6.8-2.39 6.8-0.72 0-1-1.16-0.91-3.8zm-176.93 2.03c-2.18-1.05-2.44-3.83-0.36-3.83 2.47 0 5.74 1.94 5.75 3.4 0.01 1.61-2.53 1.81-5.39 0.43zm189.23-29.22c0.87-1.21 2.51-3.07 3.65-4.14 1.15-1.07 2.08-2.37 2.08-2.9s1.06-1.4 2.34-1.94c1.29-0.53 2.54-1.47 2.78-2.09 0.26-0.68 1.57-1.13 3.28-1.13 2.61 0 2.78 0.14 2 1.6-0.47 0.88-1.51 1.6-2.31 1.6-1.84 0-7.17 3.85-11.07 7.99-3.46 3.67-5.09 4.27-2.75 1.01zm-228.23-11.41c-2.62-1.02-6.1-5.18-5.55-6.63 0.73-1.9 3.25-2.42 5.94-1.24 2.09 0.93 2.34 1.42 2.28 4.48-0.08 3.87-0.4 4.27-2.67 3.39zm1.2-3.79c-0.01-1.58-3.73-3.67-4.46-2.5-0.44 0.72 2.64 3.82 3.86 3.87 0.33 0.02 0.6-0.6 0.6-1.37zm244.76-1c0-1.32 0.36-2.4 0.8-2.4s0.8 1.08 0.8 2.4-0.36 2.4-0.8 2.4-0.8-1.08-0.8-2.4zm1.14-9.72c0.15-2.93 0.5-5.69 0.77-6.14 0.28-0.44 1.41-3.95 2.53-7.79 1.11-3.84 3.03-9.59 4.27-12.78l2.25-5.79-4.88-1.06c-2.68-0.58-5.36-0.96-5.94-0.84-0.58 0.13-1.48-0.13-2-0.55-0.52-0.43-4-1.56-7.74-2.5s-10.4-2.83-14.8-4.19c-4.39-1.36-8.53-2.53-9.19-2.6s-1.92-0.51-2.8-0.97c-2.11-1.12-7.85-3.03-8.54-2.84-0.3 0.08-6.22-2.73-13.15-6.24s-13.06-6.38-13.62-6.38c-0.55 0-1.3-0.46-1.65-1.02s-3.67-3.17-7.39-5.8c-12.85-9.097-27.63-25.237-27.1-29.603 0.24-1.961 0.67-1.606 5.42 4.428 19.53 24.845 49.69 40.635 102.35 53.565 7.22 1.77 13.3 3.39 13.5 3.6 0.21 0.2-0.18 1.91-0.85 3.8-5.89 16.4-9.54 27.45-10.53 31.82l-1.18 5.2 0.27-5.32zm-213.1-24.75c-3.3-0.29-9.42-0.94-13.6-1.46-4.18-0.51-9.58-0.89-12-0.84s-8.18-0.28-12.8-0.73-8.85-0.84-9.4-0.86-1-0.97-1-2.12c0-1.92 0.22-2.05 2.6-1.63 1.43 0.26 8.72 0.84 16.2 1.29s18.03 1.41 23.44 2.13c8.16 1.1 10.42 1.15 13.19 0.32 3.84-1.15 6.72-3.22 8.74-6.28 1.97-2.99 1.8-4.21-1.18-8.09-6.11-7.97-6.19-8.14-6.19-12.52 0-5.21 1.66-6.73 7.41-6.73 6.52 0 11.02 3.45 10.95 8.38l-0.03 2.42-1.14-2.09c-2-3.68-9.01-5.9-13.8-4.37-2.54 0.81-2.24 2.98 0.98 7 4.4 5.49 5.43 7.83 5.34 12.08-0.1 4.26-1.55 10.61-2.27 9.89-0.24-0.24-1.57 0.37-2.94 1.37-4.01 2.91-6.12 3.39-12.5 2.84zm31.59-15.03c-0.88-0.38-1.82-0.56-2.09-0.41-1.05 0.6-2.92-2.63-3.41-5.88-0.61-4.04 0.11-4.28 2.31-0.77 1.12 1.78 2.56 2.81 4.68 3.33 4.22 1.05 8.29-0.52 21.43-8.26 5.87-3.46 13.23-7.76 16.34-9.55 3.12-1.8 6.97-4.7 8.56-6.46 2.91-3.22 5.37-9.553 5.37-13.828 0-1.24 0.28-2.255 0.62-2.255 0.72 0 0.23 12.213-0.51 12.803-0.28 0.22-1.31 2.04-2.29 4.05-1.93 3.95-3.99 5.51-16.81 12.7-4.07 2.28-7.4 4.48-7.4 4.89s-0.57 0.75-1.26 0.75-2.76 1.03-4.6 2.29c-8.32 5.71-16.8 8.38-20.94 6.6zm53.19-49.267c0-1.381 0.44-2.018 1.4-2.025 0.77-0.006 4.46-1.081 8.2-2.389s6.89-2.383 7-2.389 0.2 0.865 0.2 1.935c0 1.318-0.58 2.127-1.8 2.507-0.99 0.309-2.02 0.899-2.28 1.312-0.27 0.412-1.35 0.859-2.4 0.992-1.06 0.134-3 0.49-4.32 0.793-6.08 1.392-6 1.402-6-0.736z"/>
  </g>
  <metadata>
    <rdf:RDF>
      <cc:Work>
        <dc:format>image/svg+xml</dc:format>
        <dc:type rdf:resource="http://purl.org/dc/dcmitype/StillImage"/>
        <cc:license rdf:resource="http://creativecommons.org/licenses/publicdomain/"/>
        <dc:publisher>
          <cc:Agent rdf:about="http://openclipart.org/">
            <dc:title>Openclipart</dc:title>
          </cc:Agent>
        </dc:publisher>
        <dc:title>France</dc:title>
        <dc:date>2007-08-16T19:21:22</dc:date>
        <dc:description>clip art, clipart, country, country, france, france, image, media, public domain, svg, </dc:description>
        <dc:source>http://openclipart.org/detail/4821/france-by-steren</dc:source>
        <dc:creator>
          <cc:Agent>
            <dc:title>Steren</dc:title>
          </cc:Agent>
        </dc:creator>
        <dc:subject>
          <rdf:Bag>
            <rdf:li>clip art</rdf:li>
            <rdf:li>clipart</rdf:li>
            <rdf:li>country</rdf:li>
            <rdf:li>france</rdf:li>
            <rdf:li>image</rdf:li>
            <rdf:li>media</rdf:li>
            <rdf:li>public domain</rdf:li>
            <rdf:li>svg</rdf:li>
          </rdf:Bag>
        </dc:subject>
      </cc:Work>
      <cc:License rdf:about="http://creativecommons.org/licenses/publicdomain/">
        <cc:permits rdf:resource="http://creativecommons.org/ns#Reproduction"/>
        <cc:permits rdf:resource="http://creativecommons.org/ns#Distribution"/>
        <cc:permits rdf:resource="http://creativecommons.org/ns#DerivativeWorks"/>
      </cc:License>
    </rdf:RDF>
  </metadata>
</svg>
